<svg width="24" height="24" viewBox="0 0 24 24" fill="none" xmlns="http://www.w3.org/2000/svg">
<g clip-path="url(#clip0_2032_29144)">
<path d="M12 8.66667C10.162 8.66667 8.66667 10.162 8.66667 12C8.66667 13.838 10.162 15.3333 12 15.3333C13.838 15.3333 15.3333 13.838 15.3333 12C15.3333 10.162 13.838 8.66667 12 8.66667ZM12 14C10.8973 14 10 13.1027 10 12C10 10.8973 10.8973 10 12 10C13.1027 10 14 10.8973 14 12C14 13.1027 13.1027 14 12 14ZM19.3333 11.3333H18.6333C18.3193 8.18867 15.8113 5.68 12.6667 5.36667V4.66667C12.6667 4.298 12.368 4 12 4C11.632 4 11.3333 4.298 11.3333 4.66667V5.36667C8.18867 5.68 5.68 8.18867 5.36667 11.3333H4.66667C4.29867 11.3333 4 11.6313 4 12C4 12.3687 4.29867 12.6667 4.66667 12.6667H5.36667C5.68067 15.8113 8.18867 18.32 11.3333 18.6333V19.3333C11.3333 19.702 11.632 20 12 20C12.368 20 12.6667 19.702 12.6667 19.3333V18.6333C15.8113 18.3193 18.32 15.8113 18.6333 12.6667H19.3333C19.7013 12.6667 20 12.3687 20 12C20 11.6313 19.7013 11.3333 19.3333 11.3333ZM12 17.3333C9.05933 17.3333 6.66667 14.9407 6.66667 12C6.66667 9.05933 9.05933 6.66667 12 6.66667C14.9407 6.66667 17.3333 9.05933 17.3333 12C17.3333 14.9407 14.9407 17.3333 12 17.3333Z" fill="#FF5443"/>
<circle cx="12" cy="12" r="2" fill="#FF5443"/>
</g>
<defs>
<clipPath id="clip0_2032_29144">
<rect width="16" height="16" fill="white" transform="translate(4 4)"/>
</clipPath>
</defs>
</svg>
